<mxfile host="app.diagrams.net" modified="2024-01-17T16:56:55.652Z" agent="Mozilla/5.0 (Windows NT 10.0; Win64; x64) AppleWebKit/537.36 (KHTML, like Gecko) Chrome/120.0.0.0 Safari/537.36" etag="IyXa4a3YEJLLz0UckdLi" version="22.1.21" type="device">
  <diagram name="Sida-1" id="2DTVpUDF6bw2Ej_WnjAx">
    <mxGraphModel dx="1105" dy="549" grid="1" gridSize="10" guides="1" tooltips="1" connect="1" arrows="1" fold="1" page="1" pageScale="1" pageWidth="827" pageHeight="1169" math="0" shadow="0">
      <root>
        <mxCell id="0" />
        <mxCell id="1" parent="0" />
        <mxCell id="iqfv6s4tApIT3t5da_tG-3" value="&lt;font style=&quot;font-size: 14px;&quot; face=&quot;Times New Roman&quot;&gt;Tile&lt;/font&gt;" style="swimlane;fontStyle=0;childLayout=stackLayout;horizontal=1;startSize=30;horizontalStack=0;resizeParent=1;resizeParentMax=0;resizeLast=0;collapsible=1;marginBottom=0;whiteSpace=wrap;html=1;rounded=0;labelBackgroundColor=none;fillColor=#A8DADC;strokeColor=#457B9D;fontColor=#1D3557;" vertex="1" parent="1">
          <mxGeometry x="83" y="233" width="140" height="90" as="geometry" />
        </mxCell>
        <mxCell id="iqfv6s4tApIT3t5da_tG-4" value="Id" style="text;strokeColor=none;fillColor=none;align=left;verticalAlign=middle;spacingLeft=4;spacingRight=4;overflow=hidden;points=[[0,0.5],[1,0.5]];portConstraint=eastwest;rotatable=0;whiteSpace=wrap;html=1;rounded=0;labelBackgroundColor=none;fontColor=#1D3557;" vertex="1" parent="iqfv6s4tApIT3t5da_tG-3">
          <mxGeometry y="30" width="140" height="20" as="geometry" />
        </mxCell>
        <mxCell id="iqfv6s4tApIT3t5da_tG-5" value="Terrain type" style="text;strokeColor=none;fillColor=none;align=left;verticalAlign=middle;spacingLeft=4;spacingRight=4;overflow=hidden;points=[[0,0.5],[1,0.5]];portConstraint=eastwest;rotatable=0;whiteSpace=wrap;html=1;rounded=0;labelBackgroundColor=none;fontColor=#1D3557;" vertex="1" parent="iqfv6s4tApIT3t5da_tG-3">
          <mxGeometry y="50" width="140" height="20" as="geometry" />
        </mxCell>
        <mxCell id="iqfv6s4tApIT3t5da_tG-6" value="Units &amp;amp; Building" style="text;strokeColor=none;fillColor=none;align=left;verticalAlign=middle;spacingLeft=4;spacingRight=4;overflow=hidden;points=[[0,0.5],[1,0.5]];portConstraint=eastwest;rotatable=0;whiteSpace=wrap;html=1;rounded=0;labelBackgroundColor=none;fontColor=#1D3557;" vertex="1" parent="iqfv6s4tApIT3t5da_tG-3">
          <mxGeometry y="70" width="140" height="20" as="geometry" />
        </mxCell>
        <mxCell id="iqfv6s4tApIT3t5da_tG-7" value="GameStateManager" style="swimlane;fontStyle=0;childLayout=stackLayout;horizontal=1;startSize=30;horizontalStack=0;resizeParent=1;resizeParentMax=0;resizeLast=0;collapsible=1;marginBottom=0;whiteSpace=wrap;html=1;rounded=0;labelBackgroundColor=none;fillColor=#A8DADC;strokeColor=#457B9D;fontColor=#1D3557;" vertex="1" parent="1">
          <mxGeometry x="478" y="293" width="130" height="120" as="geometry" />
        </mxCell>
        <mxCell id="iqfv6s4tApIT3t5da_tG-8" value="Players &amp;amp; Current" style="text;strokeColor=none;fillColor=none;align=left;verticalAlign=middle;spacingLeft=4;spacingRight=4;overflow=hidden;points=[[0,0.5],[1,0.5]];portConstraint=eastwest;rotatable=0;whiteSpace=wrap;html=1;rounded=0;labelBackgroundColor=none;fontColor=#1D3557;" vertex="1" parent="iqfv6s4tApIT3t5da_tG-7">
          <mxGeometry y="30" width="130" height="30" as="geometry" />
        </mxCell>
        <mxCell id="iqfv6s4tApIT3t5da_tG-9" value="Map" style="text;strokeColor=none;fillColor=none;align=left;verticalAlign=middle;spacingLeft=4;spacingRight=4;overflow=hidden;points=[[0,0.5],[1,0.5]];portConstraint=eastwest;rotatable=0;whiteSpace=wrap;html=1;rounded=0;labelBackgroundColor=none;fontColor=#1D3557;" vertex="1" parent="iqfv6s4tApIT3t5da_tG-7">
          <mxGeometry y="60" width="130" height="30" as="geometry" />
        </mxCell>
        <mxCell id="iqfv6s4tApIT3t5da_tG-16" value="Phase" style="text;strokeColor=none;fillColor=none;align=left;verticalAlign=middle;spacingLeft=4;spacingRight=4;overflow=hidden;points=[[0,0.5],[1,0.5]];portConstraint=eastwest;rotatable=0;whiteSpace=wrap;html=1;rounded=0;labelBackgroundColor=none;fontColor=#1D3557;" vertex="1" parent="iqfv6s4tApIT3t5da_tG-7">
          <mxGeometry y="90" width="130" height="30" as="geometry" />
        </mxCell>
        <mxCell id="iqfv6s4tApIT3t5da_tG-21" style="edgeStyle=orthogonalEdgeStyle;rounded=0;orthogonalLoop=1;jettySize=auto;html=1;entryX=1;entryY=0.5;entryDx=0;entryDy=0;labelBackgroundColor=none;strokeColor=#457B9D;fontColor=default;" edge="1" parent="1" source="iqfv6s4tApIT3t5da_tG-8" target="iqfv6s4tApIT3t5da_tG-6">
          <mxGeometry relative="1" as="geometry" />
        </mxCell>
        <mxCell id="iqfv6s4tApIT3t5da_tG-39" value="" style="edgeStyle=orthogonalEdgeStyle;rounded=0;orthogonalLoop=1;jettySize=auto;html=1;labelBackgroundColor=none;strokeColor=#457B9D;fontColor=default;" edge="1" parent="1" source="iqfv6s4tApIT3t5da_tG-26" target="iqfv6s4tApIT3t5da_tG-38">
          <mxGeometry relative="1" as="geometry" />
        </mxCell>
        <mxCell id="iqfv6s4tApIT3t5da_tG-49" style="edgeStyle=orthogonalEdgeStyle;rounded=0;orthogonalLoop=1;jettySize=auto;html=1;entryX=0;entryY=0.5;entryDx=0;entryDy=0;dashed=1;dashPattern=8 8;labelBackgroundColor=none;strokeColor=#457B9D;fontColor=default;" edge="1" parent="1" target="iqfv6s4tApIT3t5da_tG-6">
          <mxGeometry relative="1" as="geometry">
            <mxPoint x="273" y="203" as="sourcePoint" />
            <mxPoint x="13" y="294" as="targetPoint" />
            <Array as="points">
              <mxPoint x="273" y="183" />
              <mxPoint x="253" y="183" />
              <mxPoint x="253" y="223" />
              <mxPoint x="63" y="223" />
              <mxPoint x="63" y="313" />
            </Array>
          </mxGeometry>
        </mxCell>
        <mxCell id="iqfv6s4tApIT3t5da_tG-26" value="Units" style="swimlane;fontStyle=0;childLayout=stackLayout;horizontal=1;startSize=30;horizontalStack=0;resizeParent=1;resizeParentMax=0;resizeLast=0;collapsible=1;marginBottom=0;whiteSpace=wrap;html=1;rounded=0;labelBackgroundColor=none;fillColor=#A8DADC;strokeColor=#457B9D;fontColor=#1D3557;" vertex="1" parent="1">
          <mxGeometry x="273" y="113" width="140" height="120" as="geometry" />
        </mxCell>
        <mxCell id="iqfv6s4tApIT3t5da_tG-28" value="Hit chance" style="text;strokeColor=none;fillColor=none;align=left;verticalAlign=middle;spacingLeft=4;spacingRight=4;overflow=hidden;points=[[0,0.5],[1,0.5]];portConstraint=eastwest;rotatable=0;whiteSpace=wrap;html=1;rounded=0;labelBackgroundColor=none;fontColor=#1D3557;" vertex="1" parent="iqfv6s4tApIT3t5da_tG-26">
          <mxGeometry y="30" width="140" height="30" as="geometry" />
        </mxCell>
        <mxCell id="iqfv6s4tApIT3t5da_tG-128" value="Cost" style="text;strokeColor=none;fillColor=none;align=left;verticalAlign=middle;spacingLeft=4;spacingRight=4;overflow=hidden;points=[[0,0.5],[1,0.5]];portConstraint=eastwest;rotatable=0;whiteSpace=wrap;html=1;rounded=0;labelBackgroundColor=none;fontColor=#1D3557;" vertex="1" parent="iqfv6s4tApIT3t5da_tG-26">
          <mxGeometry y="60" width="140" height="30" as="geometry" />
        </mxCell>
        <mxCell id="iqfv6s4tApIT3t5da_tG-29" value="Movement" style="text;strokeColor=none;fillColor=none;align=left;verticalAlign=middle;spacingLeft=4;spacingRight=4;overflow=hidden;points=[[0,0.5],[1,0.5]];portConstraint=eastwest;rotatable=0;whiteSpace=wrap;html=1;rounded=0;labelBackgroundColor=none;fontColor=#1D3557;" vertex="1" parent="iqfv6s4tApIT3t5da_tG-26">
          <mxGeometry y="90" width="140" height="30" as="geometry" />
        </mxCell>
        <mxCell id="iqfv6s4tApIT3t5da_tG-30" style="edgeStyle=orthogonalEdgeStyle;rounded=0;orthogonalLoop=1;jettySize=auto;html=1;entryX=1;entryY=0.25;entryDx=0;entryDy=0;labelBackgroundColor=none;strokeColor=#457B9D;fontColor=default;" edge="1" parent="1" source="iqfv6s4tApIT3t5da_tG-9" target="iqfv6s4tApIT3t5da_tG-3">
          <mxGeometry relative="1" as="geometry" />
        </mxCell>
        <mxCell id="iqfv6s4tApIT3t5da_tG-32" value="Player" style="swimlane;fontStyle=0;childLayout=stackLayout;horizontal=1;startSize=30;horizontalStack=0;resizeParent=1;resizeParentMax=0;resizeLast=0;collapsible=1;marginBottom=0;whiteSpace=wrap;html=1;rounded=0;labelBackgroundColor=none;fillColor=#A8DADC;strokeColor=#457B9D;fontColor=#1D3557;" vertex="1" parent="1">
          <mxGeometry x="473" y="113" width="140" height="150" as="geometry" />
        </mxCell>
        <mxCell id="iqfv6s4tApIT3t5da_tG-27" value="Resources" style="text;strokeColor=none;fillColor=none;align=left;verticalAlign=middle;spacingLeft=4;spacingRight=4;overflow=hidden;points=[[0,0.5],[1,0.5]];portConstraint=eastwest;rotatable=0;whiteSpace=wrap;html=1;rounded=0;labelBackgroundColor=none;fontColor=#1D3557;" vertex="1" parent="iqfv6s4tApIT3t5da_tG-32">
          <mxGeometry y="30" width="140" height="30" as="geometry" />
        </mxCell>
        <mxCell id="iqfv6s4tApIT3t5da_tG-33" value="Units &amp;amp; Buildings" style="text;strokeColor=none;fillColor=none;align=left;verticalAlign=middle;spacingLeft=4;spacingRight=4;overflow=hidden;points=[[0,0.5],[1,0.5]];portConstraint=eastwest;rotatable=0;whiteSpace=wrap;html=1;rounded=0;labelBackgroundColor=none;fontColor=#1D3557;" vertex="1" parent="iqfv6s4tApIT3t5da_tG-32">
          <mxGeometry y="60" width="140" height="30" as="geometry" />
        </mxCell>
        <mxCell id="iqfv6s4tApIT3t5da_tG-34" value="Type" style="text;strokeColor=none;fillColor=none;align=left;verticalAlign=middle;spacingLeft=4;spacingRight=4;overflow=hidden;points=[[0,0.5],[1,0.5]];portConstraint=eastwest;rotatable=0;whiteSpace=wrap;html=1;rounded=0;labelBackgroundColor=none;fontColor=#1D3557;" vertex="1" parent="iqfv6s4tApIT3t5da_tG-32">
          <mxGeometry y="90" width="140" height="30" as="geometry" />
        </mxCell>
        <mxCell id="iqfv6s4tApIT3t5da_tG-35" value="Tiles" style="text;strokeColor=none;fillColor=none;align=left;verticalAlign=middle;spacingLeft=4;spacingRight=4;overflow=hidden;points=[[0,0.5],[1,0.5]];portConstraint=eastwest;rotatable=0;whiteSpace=wrap;html=1;rounded=0;labelBackgroundColor=none;fontColor=#1D3557;" vertex="1" parent="iqfv6s4tApIT3t5da_tG-32">
          <mxGeometry y="120" width="140" height="30" as="geometry" />
        </mxCell>
        <mxCell id="iqfv6s4tApIT3t5da_tG-36" style="edgeStyle=orthogonalEdgeStyle;rounded=0;orthogonalLoop=1;jettySize=auto;html=1;entryX=1;entryY=0.25;entryDx=0;entryDy=0;labelBackgroundColor=none;strokeColor=#457B9D;fontColor=default;" edge="1" parent="1" source="iqfv6s4tApIT3t5da_tG-35" target="iqfv6s4tApIT3t5da_tG-3">
          <mxGeometry relative="1" as="geometry">
            <Array as="points">
              <mxPoint x="348" y="248" />
              <mxPoint x="348" y="256" />
            </Array>
          </mxGeometry>
        </mxCell>
        <mxCell id="iqfv6s4tApIT3t5da_tG-38" value="Subclasses" style="whiteSpace=wrap;html=1;fontStyle=0;startSize=30;rounded=0;labelBackgroundColor=none;fillColor=#A8DADC;strokeColor=#457B9D;fontColor=#1D3557;" vertex="1" parent="1">
          <mxGeometry x="83" y="107" width="120" height="60" as="geometry" />
        </mxCell>
        <mxCell id="iqfv6s4tApIT3t5da_tG-40" style="edgeStyle=orthogonalEdgeStyle;rounded=0;orthogonalLoop=1;jettySize=auto;html=1;entryX=1;entryY=0.5;entryDx=0;entryDy=0;labelBackgroundColor=none;strokeColor=#457B9D;fontColor=default;" edge="1" parent="1" source="iqfv6s4tApIT3t5da_tG-33" target="iqfv6s4tApIT3t5da_tG-28">
          <mxGeometry relative="1" as="geometry" />
        </mxCell>
        <mxCell id="iqfv6s4tApIT3t5da_tG-46" style="edgeStyle=elbowEdgeStyle;rounded=0;orthogonalLoop=1;jettySize=auto;html=1;entryX=1;entryY=0.5;entryDx=0;entryDy=0;dashed=1;dashPattern=8 8;labelBackgroundColor=none;strokeColor=#457B9D;fontColor=default;" edge="1" parent="1" source="iqfv6s4tApIT3t5da_tG-42" target="iqfv6s4tApIT3t5da_tG-6">
          <mxGeometry relative="1" as="geometry" />
        </mxCell>
        <mxCell id="iqfv6s4tApIT3t5da_tG-42" value="Building" style="swimlane;fontStyle=0;childLayout=stackLayout;horizontal=1;startSize=30;horizontalStack=0;resizeParent=1;resizeParentMax=0;resizeLast=0;collapsible=1;marginBottom=0;whiteSpace=wrap;html=1;rounded=0;labelBackgroundColor=none;fillColor=#A8DADC;strokeColor=#457B9D;fontColor=#1D3557;" vertex="1" parent="1">
          <mxGeometry x="278" y="10" width="140" height="90" as="geometry" />
        </mxCell>
        <mxCell id="iqfv6s4tApIT3t5da_tG-129" value="Cost" style="text;strokeColor=none;fillColor=none;align=left;verticalAlign=middle;spacingLeft=4;spacingRight=4;overflow=hidden;points=[[0,0.5],[1,0.5]];portConstraint=eastwest;rotatable=0;whiteSpace=wrap;html=1;rounded=0;labelBackgroundColor=none;fontColor=#1D3557;" vertex="1" parent="iqfv6s4tApIT3t5da_tG-42">
          <mxGeometry y="30" width="140" height="30" as="geometry" />
        </mxCell>
        <mxCell id="iqfv6s4tApIT3t5da_tG-43" value="Production" style="text;strokeColor=none;fillColor=none;align=left;verticalAlign=middle;spacingLeft=4;spacingRight=4;overflow=hidden;points=[[0,0.5],[1,0.5]];portConstraint=eastwest;rotatable=0;whiteSpace=wrap;html=1;rounded=0;labelBackgroundColor=none;fontColor=#1D3557;" vertex="1" parent="iqfv6s4tApIT3t5da_tG-42">
          <mxGeometry y="60" width="140" height="30" as="geometry" />
        </mxCell>
        <mxCell id="iqfv6s4tApIT3t5da_tG-45" style="edgeStyle=orthogonalEdgeStyle;rounded=0;orthogonalLoop=1;jettySize=auto;html=1;entryX=1;entryY=0.5;entryDx=0;entryDy=0;labelBackgroundColor=none;strokeColor=#457B9D;fontColor=default;" edge="1" parent="1" source="iqfv6s4tApIT3t5da_tG-33" target="iqfv6s4tApIT3t5da_tG-43">
          <mxGeometry relative="1" as="geometry" />
        </mxCell>
        <mxCell id="iqfv6s4tApIT3t5da_tG-48" style="edgeStyle=orthogonalEdgeStyle;rounded=0;orthogonalLoop=1;jettySize=auto;html=1;entryX=1;entryY=0.5;entryDx=0;entryDy=0;labelBackgroundColor=none;strokeColor=#457B9D;fontColor=default;" edge="1" parent="1" source="iqfv6s4tApIT3t5da_tG-43" target="iqfv6s4tApIT3t5da_tG-38">
          <mxGeometry relative="1" as="geometry" />
        </mxCell>
        <mxCell id="iqfv6s4tApIT3t5da_tG-50" value="Game" style="swimlane;fontStyle=0;childLayout=stackLayout;horizontal=1;startSize=30;horizontalStack=0;resizeParent=1;resizeParentMax=0;resizeLast=0;collapsible=1;marginBottom=0;whiteSpace=wrap;html=1;rounded=0;labelBackgroundColor=none;fillColor=#A8DADC;strokeColor=#457B9D;fontColor=#1D3557;" vertex="1" parent="1">
          <mxGeometry x="478" y="460" width="140" height="120" as="geometry" />
        </mxCell>
        <mxCell id="iqfv6s4tApIT3t5da_tG-51" value="StateManager" style="text;strokeColor=none;fillColor=none;align=left;verticalAlign=middle;spacingLeft=4;spacingRight=4;overflow=hidden;points=[[0,0.5],[1,0.5]];portConstraint=eastwest;rotatable=0;whiteSpace=wrap;html=1;rounded=0;labelBackgroundColor=none;fontColor=#1D3557;" vertex="1" parent="iqfv6s4tApIT3t5da_tG-50">
          <mxGeometry y="30" width="140" height="30" as="geometry" />
        </mxCell>
        <mxCell id="iqfv6s4tApIT3t5da_tG-52" value="GraphicsManager" style="text;strokeColor=none;fillColor=none;align=left;verticalAlign=middle;spacingLeft=4;spacingRight=4;overflow=hidden;points=[[0,0.5],[1,0.5]];portConstraint=eastwest;rotatable=0;whiteSpace=wrap;html=1;rounded=0;labelBackgroundColor=none;fontColor=#1D3557;" vertex="1" parent="iqfv6s4tApIT3t5da_tG-50">
          <mxGeometry y="60" width="140" height="30" as="geometry" />
        </mxCell>
        <mxCell id="iqfv6s4tApIT3t5da_tG-53" value="GameInfo" style="text;strokeColor=none;fillColor=none;align=left;verticalAlign=middle;spacingLeft=4;spacingRight=4;overflow=hidden;points=[[0,0.5],[1,0.5]];portConstraint=eastwest;rotatable=0;whiteSpace=wrap;html=1;rounded=0;labelBackgroundColor=none;fontColor=#1D3557;" vertex="1" parent="iqfv6s4tApIT3t5da_tG-50">
          <mxGeometry y="90" width="140" height="30" as="geometry" />
        </mxCell>
        <mxCell id="iqfv6s4tApIT3t5da_tG-54" style="edgeStyle=orthogonalEdgeStyle;rounded=0;orthogonalLoop=1;jettySize=auto;html=1;entryX=1.034;entryY=-0.127;entryDx=0;entryDy=0;entryPerimeter=0;labelBackgroundColor=none;strokeColor=#457B9D;fontColor=default;" edge="1" parent="1" source="iqfv6s4tApIT3t5da_tG-51" target="iqfv6s4tApIT3t5da_tG-9">
          <mxGeometry relative="1" as="geometry" />
        </mxCell>
        <mxCell id="iqfv6s4tApIT3t5da_tG-55" value="GameGraphicsManager" style="swimlane;fontStyle=0;childLayout=stackLayout;horizontal=1;startSize=30;horizontalStack=0;resizeParent=1;resizeParentMax=0;resizeLast=0;collapsible=1;marginBottom=0;whiteSpace=wrap;html=1;rounded=0;labelBackgroundColor=none;fillColor=#A8DADC;strokeColor=#457B9D;fontColor=#1D3557;" vertex="1" parent="1">
          <mxGeometry x="278" y="430" width="130" height="120" as="geometry" />
        </mxCell>
        <mxCell id="iqfv6s4tApIT3t5da_tG-56" value="PlayerView" style="text;strokeColor=none;fillColor=none;align=left;verticalAlign=middle;spacingLeft=4;spacingRight=4;overflow=hidden;points=[[0,0.5],[1,0.5]];portConstraint=eastwest;rotatable=0;whiteSpace=wrap;html=1;rounded=0;labelBackgroundColor=none;fontColor=#1D3557;" vertex="1" parent="iqfv6s4tApIT3t5da_tG-55">
          <mxGeometry y="30" width="130" height="30" as="geometry" />
        </mxCell>
        <mxCell id="iqfv6s4tApIT3t5da_tG-135" value="TileView" style="text;strokeColor=none;fillColor=none;align=left;verticalAlign=middle;spacingLeft=4;spacingRight=4;overflow=hidden;points=[[0,0.5],[1,0.5]];portConstraint=eastwest;rotatable=0;whiteSpace=wrap;html=1;rounded=0;labelBackgroundColor=none;fontColor=#1D3557;" vertex="1" parent="iqfv6s4tApIT3t5da_tG-55">
          <mxGeometry y="60" width="130" height="30" as="geometry" />
        </mxCell>
        <mxCell id="iqfv6s4tApIT3t5da_tG-57" value="MouseHandling" style="text;strokeColor=none;fillColor=none;align=left;verticalAlign=middle;spacingLeft=4;spacingRight=4;overflow=hidden;points=[[0,0.5],[1,0.5]];portConstraint=eastwest;rotatable=0;whiteSpace=wrap;html=1;rounded=0;labelBackgroundColor=none;fontColor=#1D3557;" vertex="1" parent="iqfv6s4tApIT3t5da_tG-55">
          <mxGeometry y="90" width="130" height="30" as="geometry" />
        </mxCell>
        <mxCell id="iqfv6s4tApIT3t5da_tG-59" style="edgeStyle=orthogonalEdgeStyle;rounded=0;orthogonalLoop=1;jettySize=auto;html=1;entryX=1.013;entryY=0.136;entryDx=0;entryDy=0;entryPerimeter=0;labelBackgroundColor=none;strokeColor=#457B9D;fontColor=default;" edge="1" parent="1" source="iqfv6s4tApIT3t5da_tG-52" target="iqfv6s4tApIT3t5da_tG-55">
          <mxGeometry relative="1" as="geometry" />
        </mxCell>
        <mxCell id="iqfv6s4tApIT3t5da_tG-61" value="PlayerView" style="swimlane;fontStyle=0;childLayout=stackLayout;horizontal=1;startSize=30;horizontalStack=0;resizeParent=1;resizeParentMax=0;resizeLast=0;collapsible=1;marginBottom=0;whiteSpace=wrap;html=1;rounded=0;labelBackgroundColor=none;fillColor=#A8DADC;strokeColor=#457B9D;fontColor=#1D3557;" vertex="1" parent="1">
          <mxGeometry x="50" y="400" width="140" height="120" as="geometry" />
        </mxCell>
        <mxCell id="iqfv6s4tApIT3t5da_tG-62" value="Resources" style="text;strokeColor=none;fillColor=none;align=left;verticalAlign=middle;spacingLeft=4;spacingRight=4;overflow=hidden;points=[[0,0.5],[1,0.5]];portConstraint=eastwest;rotatable=0;whiteSpace=wrap;html=1;rounded=0;labelBackgroundColor=none;fontColor=#1D3557;" vertex="1" parent="iqfv6s4tApIT3t5da_tG-61">
          <mxGeometry y="30" width="140" height="30" as="geometry" />
        </mxCell>
        <mxCell id="iqfv6s4tApIT3t5da_tG-63" value="Buildings &amp;amp; Units &amp;amp; Tiles" style="text;strokeColor=none;fillColor=none;align=left;verticalAlign=middle;spacingLeft=4;spacingRight=4;overflow=hidden;points=[[0,0.5],[1,0.5]];portConstraint=eastwest;rotatable=0;whiteSpace=wrap;html=1;rounded=0;labelBackgroundColor=none;fontColor=#1D3557;" vertex="1" parent="iqfv6s4tApIT3t5da_tG-61">
          <mxGeometry y="60" width="140" height="30" as="geometry" />
        </mxCell>
        <mxCell id="iqfv6s4tApIT3t5da_tG-64" value="Other factors" style="text;strokeColor=none;fillColor=none;align=left;verticalAlign=middle;spacingLeft=4;spacingRight=4;overflow=hidden;points=[[0,0.5],[1,0.5]];portConstraint=eastwest;rotatable=0;whiteSpace=wrap;html=1;rounded=0;labelBackgroundColor=none;fontColor=#1D3557;" vertex="1" parent="iqfv6s4tApIT3t5da_tG-61">
          <mxGeometry y="90" width="140" height="30" as="geometry" />
        </mxCell>
        <mxCell id="iqfv6s4tApIT3t5da_tG-60" style="edgeStyle=orthogonalEdgeStyle;rounded=0;orthogonalLoop=1;jettySize=auto;html=1;entryX=1.007;entryY=0.147;entryDx=0;entryDy=0;entryPerimeter=0;labelBackgroundColor=none;strokeColor=#457B9D;fontColor=default;" edge="1" parent="1" source="iqfv6s4tApIT3t5da_tG-56" target="iqfv6s4tApIT3t5da_tG-61">
          <mxGeometry relative="1" as="geometry">
            <mxPoint x="160" y="505" as="targetPoint" />
          </mxGeometry>
        </mxCell>
        <mxCell id="iqfv6s4tApIT3t5da_tG-65" value="TileView" style="swimlane;fontStyle=0;childLayout=stackLayout;horizontal=1;startSize=30;horizontalStack=0;resizeParent=1;resizeParentMax=0;resizeLast=0;collapsible=1;marginBottom=0;whiteSpace=wrap;html=1;rounded=0;labelBackgroundColor=none;fillColor=#A8DADC;strokeColor=#457B9D;fontColor=#1D3557;" vertex="1" parent="1">
          <mxGeometry x="50" y="560" width="140" height="150" as="geometry" />
        </mxCell>
        <mxCell id="iqfv6s4tApIT3t5da_tG-66" value="Resources" style="text;strokeColor=none;fillColor=none;align=left;verticalAlign=middle;spacingLeft=4;spacingRight=4;overflow=hidden;points=[[0,0.5],[1,0.5]];portConstraint=eastwest;rotatable=0;whiteSpace=wrap;html=1;rounded=0;labelBackgroundColor=none;fontColor=#1D3557;" vertex="1" parent="iqfv6s4tApIT3t5da_tG-65">
          <mxGeometry y="30" width="140" height="30" as="geometry" />
        </mxCell>
        <mxCell id="iqfv6s4tApIT3t5da_tG-67" value="Buildings &amp;amp; Units &amp;amp; Tiles" style="text;strokeColor=none;fillColor=none;align=left;verticalAlign=middle;spacingLeft=4;spacingRight=4;overflow=hidden;points=[[0,0.5],[1,0.5]];portConstraint=eastwest;rotatable=0;whiteSpace=wrap;html=1;rounded=0;labelBackgroundColor=none;fontColor=#1D3557;" vertex="1" parent="iqfv6s4tApIT3t5da_tG-65">
          <mxGeometry y="60" width="140" height="30" as="geometry" />
        </mxCell>
        <mxCell id="iqfv6s4tApIT3t5da_tG-70" value="Other factors" style="text;strokeColor=none;fillColor=none;align=left;verticalAlign=middle;spacingLeft=4;spacingRight=4;overflow=hidden;points=[[0,0.5],[1,0.5]];portConstraint=eastwest;rotatable=0;whiteSpace=wrap;html=1;rounded=0;labelBackgroundColor=none;fontColor=#1D3557;" vertex="1" parent="iqfv6s4tApIT3t5da_tG-65">
          <mxGeometry y="90" width="140" height="30" as="geometry" />
        </mxCell>
        <mxCell id="iqfv6s4tApIT3t5da_tG-68" value="Size" style="text;strokeColor=none;fillColor=none;align=left;verticalAlign=middle;spacingLeft=4;spacingRight=4;overflow=hidden;points=[[0,0.5],[1,0.5]];portConstraint=eastwest;rotatable=0;whiteSpace=wrap;html=1;rounded=0;labelBackgroundColor=none;fontColor=#1D3557;" vertex="1" parent="iqfv6s4tApIT3t5da_tG-65">
          <mxGeometry y="120" width="140" height="30" as="geometry" />
        </mxCell>
        <mxCell id="iqfv6s4tApIT3t5da_tG-69" style="edgeStyle=orthogonalEdgeStyle;rounded=0;orthogonalLoop=1;jettySize=auto;html=1;entryX=1.002;entryY=0.136;entryDx=0;entryDy=0;entryPerimeter=0;labelBackgroundColor=none;strokeColor=#457B9D;fontColor=default;exitX=0;exitY=0.5;exitDx=0;exitDy=0;" edge="1" parent="1" source="iqfv6s4tApIT3t5da_tG-135" target="iqfv6s4tApIT3t5da_tG-65">
          <mxGeometry relative="1" as="geometry">
            <Array as="points">
              <mxPoint x="234" y="505" />
              <mxPoint x="234" y="580" />
            </Array>
          </mxGeometry>
        </mxCell>
        <mxCell id="iqfv6s4tApIT3t5da_tG-72" value="" style="endArrow=doubleBlock;html=1;rounded=0;endFill=1;startArrow=doubleBlock;startFill=1;labelBackgroundColor=none;strokeColor=#457B9D;fontColor=default;" edge="1" parent="1" source="iqfv6s4tApIT3t5da_tG-85" target="iqfv6s4tApIT3t5da_tG-76">
          <mxGeometry relative="1" as="geometry">
            <mxPoint x="680" y="610" as="sourcePoint" />
            <mxPoint x="700" y="565" as="targetPoint" />
          </mxGeometry>
        </mxCell>
        <mxCell id="iqfv6s4tApIT3t5da_tG-73" value="" style="shape=message;html=1;outlineConnect=0;rounded=0;labelBackgroundColor=none;fillColor=#A8DADC;strokeColor=#457B9D;fontColor=#1D3557;" vertex="1" parent="iqfv6s4tApIT3t5da_tG-72">
          <mxGeometry width="20" height="14" relative="1" as="geometry">
            <mxPoint x="-10" y="-7" as="offset" />
          </mxGeometry>
        </mxCell>
        <mxCell id="iqfv6s4tApIT3t5da_tG-76" value="Storage" style="shape=cylinder3;whiteSpace=wrap;html=1;boundedLbl=1;backgroundOutline=1;size=15;rounded=0;labelBackgroundColor=none;fillColor=#A8DADC;strokeColor=#457B9D;fontColor=#1D3557;" vertex="1" parent="1">
          <mxGeometry x="730" y="520" width="60" height="80" as="geometry" />
        </mxCell>
        <mxCell id="iqfv6s4tApIT3t5da_tG-110" style="edgeStyle=orthogonalEdgeStyle;rounded=0;orthogonalLoop=1;jettySize=auto;html=1;entryX=0.5;entryY=0;entryDx=0;entryDy=0;exitX=0;exitY=0.5;exitDx=0;exitDy=0;labelBackgroundColor=none;strokeColor=#457B9D;fontColor=default;" edge="1" parent="1" source="iqfv6s4tApIT3t5da_tG-80" target="iqfv6s4tApIT3t5da_tG-111">
          <mxGeometry relative="1" as="geometry">
            <mxPoint x="560" y="920" as="targetPoint" />
            <Array as="points">
              <mxPoint x="600" y="790" />
              <mxPoint x="570" y="790" />
              <mxPoint x="570" y="920" />
              <mxPoint x="500" y="920" />
            </Array>
          </mxGeometry>
        </mxCell>
        <mxCell id="iqfv6s4tApIT3t5da_tG-77" value="MasterOperator" style="swimlane;fontStyle=0;childLayout=stackLayout;horizontal=1;startSize=30;horizontalStack=0;resizeParent=1;resizeParentMax=0;resizeLast=0;collapsible=1;marginBottom=0;whiteSpace=wrap;html=1;rounded=0;labelBackgroundColor=none;fillColor=#A8DADC;strokeColor=#457B9D;fontColor=#1D3557;" vertex="1" parent="1">
          <mxGeometry x="600" y="680" width="140" height="120" as="geometry" />
        </mxCell>
        <mxCell id="iqfv6s4tApIT3t5da_tG-78" value="Game" style="text;strokeColor=none;fillColor=none;align=left;verticalAlign=middle;spacingLeft=4;spacingRight=4;overflow=hidden;points=[[0,0.5],[1,0.5]];portConstraint=eastwest;rotatable=0;whiteSpace=wrap;html=1;rounded=0;labelBackgroundColor=none;fontColor=#1D3557;" vertex="1" parent="iqfv6s4tApIT3t5da_tG-77">
          <mxGeometry y="30" width="140" height="30" as="geometry" />
        </mxCell>
        <mxCell id="iqfv6s4tApIT3t5da_tG-79" value="GraphicsOp" style="text;strokeColor=none;fillColor=none;align=left;verticalAlign=middle;spacingLeft=4;spacingRight=4;overflow=hidden;points=[[0,0.5],[1,0.5]];portConstraint=eastwest;rotatable=0;whiteSpace=wrap;html=1;rounded=0;labelBackgroundColor=none;fontColor=#1D3557;" vertex="1" parent="iqfv6s4tApIT3t5da_tG-77">
          <mxGeometry y="60" width="140" height="30" as="geometry" />
        </mxCell>
        <mxCell id="iqfv6s4tApIT3t5da_tG-80" value="Menu" style="text;strokeColor=none;fillColor=none;align=left;verticalAlign=middle;spacingLeft=4;spacingRight=4;overflow=hidden;points=[[0,0.5],[1,0.5]];portConstraint=eastwest;rotatable=0;whiteSpace=wrap;html=1;rounded=0;labelBackgroundColor=none;fontColor=#1D3557;" vertex="1" parent="iqfv6s4tApIT3t5da_tG-77">
          <mxGeometry y="90" width="140" height="30" as="geometry" />
        </mxCell>
        <mxCell id="iqfv6s4tApIT3t5da_tG-82" value="LoadManager" style="swimlane;fontStyle=0;childLayout=stackLayout;horizontal=1;startSize=30;horizontalStack=0;resizeParent=1;resizeParentMax=0;resizeLast=0;collapsible=1;marginBottom=0;whiteSpace=wrap;html=1;rounded=0;labelBackgroundColor=none;fillColor=#A8DADC;strokeColor=#457B9D;fontColor=#1D3557;" vertex="1" parent="1">
          <mxGeometry x="670" y="340" width="140" height="120" as="geometry" />
        </mxCell>
        <mxCell id="iqfv6s4tApIT3t5da_tG-83" value="Tile Info" style="text;strokeColor=none;fillColor=none;align=left;verticalAlign=middle;spacingLeft=4;spacingRight=4;overflow=hidden;points=[[0,0.5],[1,0.5]];portConstraint=eastwest;rotatable=0;whiteSpace=wrap;html=1;rounded=0;labelBackgroundColor=none;fontColor=#1D3557;" vertex="1" parent="iqfv6s4tApIT3t5da_tG-82">
          <mxGeometry y="30" width="140" height="30" as="geometry" />
        </mxCell>
        <mxCell id="iqfv6s4tApIT3t5da_tG-84" value="Player Info" style="text;strokeColor=none;fillColor=none;align=left;verticalAlign=middle;spacingLeft=4;spacingRight=4;overflow=hidden;points=[[0,0.5],[1,0.5]];portConstraint=eastwest;rotatable=0;whiteSpace=wrap;html=1;rounded=0;labelBackgroundColor=none;fontColor=#1D3557;" vertex="1" parent="iqfv6s4tApIT3t5da_tG-82">
          <mxGeometry y="60" width="140" height="30" as="geometry" />
        </mxCell>
        <mxCell id="iqfv6s4tApIT3t5da_tG-85" value="Phase Info" style="text;strokeColor=none;fillColor=none;align=left;verticalAlign=middle;spacingLeft=4;spacingRight=4;overflow=hidden;points=[[0,0.5],[1,0.5]];portConstraint=eastwest;rotatable=0;whiteSpace=wrap;html=1;rounded=0;labelBackgroundColor=none;fontColor=#1D3557;" vertex="1" parent="iqfv6s4tApIT3t5da_tG-82">
          <mxGeometry y="90" width="140" height="30" as="geometry" />
        </mxCell>
        <mxCell id="iqfv6s4tApIT3t5da_tG-87" style="edgeStyle=orthogonalEdgeStyle;rounded=0;orthogonalLoop=1;jettySize=auto;html=1;entryX=0.326;entryY=0.944;entryDx=0;entryDy=0;entryPerimeter=0;labelBackgroundColor=none;strokeColor=#457B9D;fontColor=default;" edge="1" parent="1" source="iqfv6s4tApIT3t5da_tG-53" target="iqfv6s4tApIT3t5da_tG-85">
          <mxGeometry relative="1" as="geometry">
            <Array as="points">
              <mxPoint x="644" y="565" />
              <mxPoint x="644" y="530" />
              <mxPoint x="716" y="530" />
            </Array>
          </mxGeometry>
        </mxCell>
        <mxCell id="iqfv6s4tApIT3t5da_tG-88" style="edgeStyle=orthogonalEdgeStyle;rounded=0;orthogonalLoop=1;jettySize=auto;html=1;entryX=1.007;entryY=0.144;entryDx=0;entryDy=0;entryPerimeter=0;labelBackgroundColor=none;strokeColor=#457B9D;fontColor=default;" edge="1" parent="1" source="iqfv6s4tApIT3t5da_tG-82" target="iqfv6s4tApIT3t5da_tG-53">
          <mxGeometry relative="1" as="geometry">
            <Array as="points">
              <mxPoint x="650" y="400" />
              <mxPoint x="650" y="554" />
            </Array>
          </mxGeometry>
        </mxCell>
        <mxCell id="iqfv6s4tApIT3t5da_tG-91" value="GraphicsOp." style="swimlane;fontStyle=0;childLayout=stackLayout;horizontal=1;startSize=30;horizontalStack=0;resizeParent=1;resizeParentMax=0;resizeLast=0;collapsible=1;marginBottom=0;whiteSpace=wrap;html=1;rounded=0;labelBackgroundColor=none;fillColor=#A8DADC;strokeColor=#457B9D;fontColor=#1D3557;" vertex="1" parent="1">
          <mxGeometry x="380" y="680" width="140" height="150" as="geometry" />
        </mxCell>
        <mxCell id="iqfv6s4tApIT3t5da_tG-92" value="Phase" style="text;strokeColor=none;fillColor=none;align=left;verticalAlign=middle;spacingLeft=4;spacingRight=4;overflow=hidden;points=[[0,0.5],[1,0.5]];portConstraint=eastwest;rotatable=0;whiteSpace=wrap;html=1;rounded=0;labelBackgroundColor=none;fontColor=#1D3557;" vertex="1" parent="iqfv6s4tApIT3t5da_tG-91">
          <mxGeometry y="30" width="140" height="30" as="geometry" />
        </mxCell>
        <mxCell id="iqfv6s4tApIT3t5da_tG-93" value="RenderWindow" style="text;strokeColor=none;fillColor=none;align=left;verticalAlign=middle;spacingLeft=4;spacingRight=4;overflow=hidden;points=[[0,0.5],[1,0.5]];portConstraint=eastwest;rotatable=0;whiteSpace=wrap;html=1;rounded=0;labelBackgroundColor=none;fontColor=#1D3557;" vertex="1" parent="iqfv6s4tApIT3t5da_tG-91">
          <mxGeometry y="60" width="140" height="30" as="geometry" />
        </mxCell>
        <mxCell id="iqfv6s4tApIT3t5da_tG-96" value="GameGraphicsManager" style="text;strokeColor=none;fillColor=none;align=left;verticalAlign=middle;spacingLeft=4;spacingRight=4;overflow=hidden;points=[[0,0.5],[1,0.5]];portConstraint=eastwest;rotatable=0;whiteSpace=wrap;html=1;rounded=0;labelBackgroundColor=none;fontColor=#1D3557;" vertex="1" parent="iqfv6s4tApIT3t5da_tG-91">
          <mxGeometry y="90" width="140" height="30" as="geometry" />
        </mxCell>
        <mxCell id="iqfv6s4tApIT3t5da_tG-94" value="MenuGraphicsManager" style="text;strokeColor=none;fillColor=none;align=left;verticalAlign=middle;spacingLeft=4;spacingRight=4;overflow=hidden;points=[[0,0.5],[1,0.5]];portConstraint=eastwest;rotatable=0;whiteSpace=wrap;html=1;rounded=0;labelBackgroundColor=none;fontColor=#1D3557;" vertex="1" parent="iqfv6s4tApIT3t5da_tG-91">
          <mxGeometry y="120" width="140" height="30" as="geometry" />
        </mxCell>
        <mxCell id="iqfv6s4tApIT3t5da_tG-90" style="edgeStyle=orthogonalEdgeStyle;rounded=0;orthogonalLoop=1;jettySize=auto;html=1;entryX=1;entryY=0.5;entryDx=0;entryDy=0;labelBackgroundColor=none;strokeColor=#457B9D;fontColor=default;" edge="1" parent="1" source="iqfv6s4tApIT3t5da_tG-79" target="iqfv6s4tApIT3t5da_tG-92">
          <mxGeometry relative="1" as="geometry">
            <mxPoint x="440" y="710" as="targetPoint" />
            <Array as="points">
              <mxPoint x="560" y="755" />
              <mxPoint x="560" y="740" />
              <mxPoint x="540" y="740" />
              <mxPoint x="540" y="725" />
            </Array>
          </mxGeometry>
        </mxCell>
        <mxCell id="iqfv6s4tApIT3t5da_tG-104" style="edgeStyle=orthogonalEdgeStyle;rounded=0;orthogonalLoop=1;jettySize=auto;html=1;labelBackgroundColor=none;strokeColor=#457B9D;fontColor=default;" edge="1" parent="1" source="iqfv6s4tApIT3t5da_tG-78" target="iqfv6s4tApIT3t5da_tG-50">
          <mxGeometry relative="1" as="geometry" />
        </mxCell>
        <mxCell id="iqfv6s4tApIT3t5da_tG-105" style="edgeStyle=orthogonalEdgeStyle;rounded=0;orthogonalLoop=1;jettySize=auto;html=1;entryX=0.477;entryY=0.967;entryDx=0;entryDy=0;entryPerimeter=0;labelBackgroundColor=none;strokeColor=#457B9D;fontColor=default;" edge="1" parent="1" source="iqfv6s4tApIT3t5da_tG-96" target="iqfv6s4tApIT3t5da_tG-57">
          <mxGeometry relative="1" as="geometry">
            <Array as="points">
              <mxPoint x="290" y="780" />
              <mxPoint x="290" y="635" />
              <mxPoint x="343" y="635" />
              <mxPoint x="343" y="560" />
              <mxPoint x="340" y="560" />
            </Array>
          </mxGeometry>
        </mxCell>
        <mxCell id="iqfv6s4tApIT3t5da_tG-107" value="MenuGraphicsManager" style="swimlane;fontStyle=0;childLayout=stackLayout;horizontal=1;startSize=30;horizontalStack=0;resizeParent=1;resizeParentMax=0;resizeLast=0;collapsible=1;marginBottom=0;whiteSpace=wrap;html=1;rounded=0;labelBackgroundColor=none;fillColor=#A8DADC;strokeColor=#457B9D;fontColor=#1D3557;" vertex="1" parent="1">
          <mxGeometry x="210" y="850" width="130" height="90" as="geometry" />
        </mxCell>
        <mxCell id="iqfv6s4tApIT3t5da_tG-108" value="RulebookDisplay" style="text;strokeColor=none;fillColor=none;align=left;verticalAlign=middle;spacingLeft=4;spacingRight=4;overflow=hidden;points=[[0,0.5],[1,0.5]];portConstraint=eastwest;rotatable=0;whiteSpace=wrap;html=1;rounded=0;labelBackgroundColor=none;fontColor=#1D3557;" vertex="1" parent="iqfv6s4tApIT3t5da_tG-107">
          <mxGeometry y="30" width="130" height="30" as="geometry" />
        </mxCell>
        <mxCell id="iqfv6s4tApIT3t5da_tG-109" value="Button" style="text;strokeColor=none;fillColor=none;align=left;verticalAlign=middle;spacingLeft=4;spacingRight=4;overflow=hidden;points=[[0,0.5],[1,0.5]];portConstraint=eastwest;rotatable=0;whiteSpace=wrap;html=1;rounded=0;labelBackgroundColor=none;fontColor=#1D3557;" vertex="1" parent="iqfv6s4tApIT3t5da_tG-107">
          <mxGeometry y="60" width="130" height="30" as="geometry" />
        </mxCell>
        <mxCell id="iqfv6s4tApIT3t5da_tG-106" style="edgeStyle=orthogonalEdgeStyle;rounded=0;orthogonalLoop=1;jettySize=auto;html=1;entryX=1;entryY=0.5;entryDx=0;entryDy=0;labelBackgroundColor=none;strokeColor=#457B9D;fontColor=default;" edge="1" parent="1" source="iqfv6s4tApIT3t5da_tG-94" target="iqfv6s4tApIT3t5da_tG-108">
          <mxGeometry relative="1" as="geometry">
            <mxPoint x="360" y="910" as="targetPoint" />
          </mxGeometry>
        </mxCell>
        <mxCell id="iqfv6s4tApIT3t5da_tG-111" value="Menu" style="swimlane;fontStyle=0;childLayout=stackLayout;horizontal=1;startSize=30;horizontalStack=0;resizeParent=1;resizeParentMax=0;resizeLast=0;collapsible=1;marginBottom=0;whiteSpace=wrap;html=1;rounded=0;labelBackgroundColor=none;fillColor=#A8DADC;strokeColor=#457B9D;fontColor=#1D3557;" vertex="1" parent="1">
          <mxGeometry x="430" y="960" width="140" height="120" as="geometry" />
        </mxCell>
        <mxCell id="iqfv6s4tApIT3t5da_tG-112" value="Alternatives" style="text;strokeColor=none;fillColor=none;align=left;verticalAlign=middle;spacingLeft=4;spacingRight=4;overflow=hidden;points=[[0,0.5],[1,0.5]];portConstraint=eastwest;rotatable=0;whiteSpace=wrap;html=1;rounded=0;labelBackgroundColor=none;fontColor=#1D3557;" vertex="1" parent="iqfv6s4tApIT3t5da_tG-111">
          <mxGeometry y="30" width="140" height="30" as="geometry" />
        </mxCell>
        <mxCell id="iqfv6s4tApIT3t5da_tG-113" value="GraphicsManager" style="text;strokeColor=none;fillColor=none;align=left;verticalAlign=middle;spacingLeft=4;spacingRight=4;overflow=hidden;points=[[0,0.5],[1,0.5]];portConstraint=eastwest;rotatable=0;whiteSpace=wrap;html=1;rounded=0;labelBackgroundColor=none;fontColor=#1D3557;" vertex="1" parent="iqfv6s4tApIT3t5da_tG-111">
          <mxGeometry y="60" width="140" height="30" as="geometry" />
        </mxCell>
        <mxCell id="iqfv6s4tApIT3t5da_tG-114" value="Rulebook" style="text;strokeColor=none;fillColor=none;align=left;verticalAlign=middle;spacingLeft=4;spacingRight=4;overflow=hidden;points=[[0,0.5],[1,0.5]];portConstraint=eastwest;rotatable=0;whiteSpace=wrap;html=1;rounded=0;labelBackgroundColor=none;fontColor=#1D3557;" vertex="1" parent="iqfv6s4tApIT3t5da_tG-111">
          <mxGeometry y="90" width="140" height="30" as="geometry" />
        </mxCell>
        <mxCell id="iqfv6s4tApIT3t5da_tG-115" style="edgeStyle=orthogonalEdgeStyle;rounded=0;orthogonalLoop=1;jettySize=auto;html=1;entryX=1.018;entryY=0.152;entryDx=0;entryDy=0;entryPerimeter=0;labelBackgroundColor=none;strokeColor=#457B9D;fontColor=default;" edge="1" parent="1" source="iqfv6s4tApIT3t5da_tG-113" target="iqfv6s4tApIT3t5da_tG-107">
          <mxGeometry relative="1" as="geometry">
            <Array as="points">
              <mxPoint x="370" y="1035" />
              <mxPoint x="370" y="864" />
            </Array>
          </mxGeometry>
        </mxCell>
        <mxCell id="iqfv6s4tApIT3t5da_tG-119" value="" style="shape=note;size=20;whiteSpace=wrap;html=1;rounded=0;labelBackgroundColor=none;fillColor=#A8DADC;strokeColor=#457B9D;fontColor=#1D3557;" vertex="1" parent="1">
          <mxGeometry x="30" y="770" width="100" height="100" as="geometry" />
        </mxCell>
        <mxCell id="iqfv6s4tApIT3t5da_tG-116" style="edgeStyle=orthogonalEdgeStyle;rounded=0;orthogonalLoop=1;jettySize=auto;html=1;entryX=0;entryY=0;entryDx=100;entryDy=60;entryPerimeter=0;labelBackgroundColor=none;strokeColor=#457B9D;fontColor=default;" edge="1" parent="1" source="iqfv6s4tApIT3t5da_tG-108" target="iqfv6s4tApIT3t5da_tG-119">
          <mxGeometry relative="1" as="geometry">
            <mxPoint x="150" y="820" as="targetPoint" />
          </mxGeometry>
        </mxCell>
        <mxCell id="iqfv6s4tApIT3t5da_tG-120" value="Cloud?" style="ellipse;shape=cloud;whiteSpace=wrap;html=1;align=center;rounded=0;labelBackgroundColor=none;fillColor=#A8DADC;strokeColor=#457B9D;fontColor=#1D3557;" vertex="1" parent="1">
          <mxGeometry x="30" y="790" width="100" height="60" as="geometry" />
        </mxCell>
        <mxCell id="iqfv6s4tApIT3t5da_tG-122" value="Button" style="swimlane;fontStyle=0;childLayout=stackLayout;horizontal=1;startSize=30;horizontalStack=0;resizeParent=1;resizeParentMax=0;resizeLast=0;collapsible=1;marginBottom=0;whiteSpace=wrap;html=1;rounded=0;labelBackgroundColor=none;fillColor=#A8DADC;strokeColor=#457B9D;fontColor=#1D3557;" vertex="1" parent="1">
          <mxGeometry x="134" y="990" width="140" height="90" as="geometry" />
        </mxCell>
        <mxCell id="iqfv6s4tApIT3t5da_tG-123" value="OnClick" style="text;strokeColor=none;fillColor=none;align=left;verticalAlign=middle;spacingLeft=4;spacingRight=4;overflow=hidden;points=[[0,0.5],[1,0.5]];portConstraint=eastwest;rotatable=0;whiteSpace=wrap;html=1;rounded=0;labelBackgroundColor=none;fontColor=#1D3557;" vertex="1" parent="iqfv6s4tApIT3t5da_tG-122">
          <mxGeometry y="30" width="140" height="30" as="geometry" />
        </mxCell>
        <mxCell id="iqfv6s4tApIT3t5da_tG-124" value="Visuals" style="text;strokeColor=none;fillColor=none;align=left;verticalAlign=middle;spacingLeft=4;spacingRight=4;overflow=hidden;points=[[0,0.5],[1,0.5]];portConstraint=eastwest;rotatable=0;whiteSpace=wrap;html=1;rounded=0;labelBackgroundColor=none;fontColor=#1D3557;" vertex="1" parent="iqfv6s4tApIT3t5da_tG-122">
          <mxGeometry y="60" width="140" height="30" as="geometry" />
        </mxCell>
        <mxCell id="iqfv6s4tApIT3t5da_tG-121" style="edgeStyle=orthogonalEdgeStyle;rounded=0;orthogonalLoop=1;jettySize=auto;html=1;labelBackgroundColor=none;strokeColor=#457B9D;fontColor=default;" edge="1" parent="1" source="iqfv6s4tApIT3t5da_tG-112" target="iqfv6s4tApIT3t5da_tG-122">
          <mxGeometry relative="1" as="geometry">
            <mxPoint x="320" y="1040" as="targetPoint" />
            <Array as="points">
              <mxPoint x="320" y="1005" />
              <mxPoint x="320" y="1050" />
            </Array>
          </mxGeometry>
        </mxCell>
        <mxCell id="iqfv6s4tApIT3t5da_tG-126" style="edgeStyle=orthogonalEdgeStyle;rounded=0;orthogonalLoop=1;jettySize=auto;html=1;entryX=0.5;entryY=0;entryDx=0;entryDy=0;labelBackgroundColor=none;strokeColor=#457B9D;fontColor=default;" edge="1" parent="1" source="iqfv6s4tApIT3t5da_tG-109" target="iqfv6s4tApIT3t5da_tG-122">
          <mxGeometry relative="1" as="geometry" />
        </mxCell>
        <mxCell id="iqfv6s4tApIT3t5da_tG-127" style="edgeStyle=orthogonalEdgeStyle;rounded=0;orthogonalLoop=1;jettySize=auto;html=1;entryX=0.5;entryY=1;entryDx=0;entryDy=0;entryPerimeter=0;labelBackgroundColor=none;strokeColor=#457B9D;fontColor=default;" edge="1" parent="1" source="iqfv6s4tApIT3t5da_tG-114" target="iqfv6s4tApIT3t5da_tG-119">
          <mxGeometry relative="1" as="geometry">
            <Array as="points">
              <mxPoint x="500" y="1120" />
              <mxPoint x="80" y="1120" />
            </Array>
          </mxGeometry>
        </mxCell>
      </root>
    </mxGraphModel>
  </diagram>
</mxfile>
